# Blender v2.80 (sub 41) OBJ File: ''
# www.blender.org
mtllib weapon4.mtl
v 1.065993 0.217585 1.608707
v 1.074154 -0.391938 2.751311
v 1.075502 -0.350566 1.595715
v 1.074045 0.241124 2.751679
v 0.509310 -0.619861 2.751231
v 0.000528 -0.407912 2.751391
v 0.487683 -0.604598 1.575061
v 0.000951 0.377830 0.867094
v -0.492909 0.601226 1.568998
v -0.000665 0.403888 2.751874
v 0.879663 0.129408 0.932657
v 0.879814 -0.157101 0.888747
v 0.496439 0.609393 1.568142
v 0.398886 0.452274 0.930663
v 0.815308 0.069984 -1.385607
v 0.353065 0.327537 -1.683537
v 0.413454 0.387540 0.150419
v -0.420797 0.400346 0.150270
v -0.398467 0.451866 0.930386
v -0.509575 0.636425 2.752058
v 0.279144 0.623093 -0.353563
v 0.815911 -0.238743 -1.417083
v 0.331025 -0.354618 -1.777154
v 0.223751 0.445401 -2.127207
v 0.131046 -0.787449 -0.519638
v 0.385736 -0.550817 -2.532871
v 0.201719 0.440312 -3.313741
v 0.130600 -0.375714 -0.546307
v 0.379641 -0.830000 -3.777170
v 0.201719 0.721545 -4.351961
v 0.015453 -0.394597 0.720897
v -0.385738 -0.550817 -2.532871
v -0.379642 -0.830000 -3.777170
v -0.131960 -0.382638 -0.546081
v -0.201721 0.721545 -4.351961
v -0.201721 0.440312 -3.313741
v -0.223753 0.445401 -2.127207
v 0.506740 0.630828 2.751959
v -1.075995 0.222978 1.561245
v -1.070641 -0.348449 1.564888
v -1.068996 -0.379501 2.751519
v -1.070849 0.236639 2.751878
v -0.514775 -0.633147 2.751325
v -0.491873 -0.619167 1.564571
v -0.897791 0.162950 0.937968
v -0.890652 -0.189482 0.936506
v -0.796684 0.045264 -1.383716
v -0.341133 0.307320 -1.682875
v -0.279147 0.623093 -0.353563
v -0.820142 -0.235767 -1.417281
v -0.330660 -0.352756 -1.777214
v -0.131048 -0.787449 -0.519638
vt 0.197583 0.552614
vt 0.036090 0.464254
vt 0.197583 0.483151
vt 0.036090 0.554165
vt 0.036090 0.381815
vt 0.036090 0.310233
vt 0.197583 0.409218
vt 0.302081 0.716365
vt 0.197583 0.796727
vt 0.036090 0.725292
vt 0.302081 0.550346
vt 0.302081 0.502142
vt 0.197583 0.646251
vt 0.302081 0.650592
vt 0.647024 0.551614
vt 0.668899 0.661698
vt 0.405065 0.661698
vt 0.405065 0.764418
vt 0.302081 0.779050
vt 0.036090 0.797461
vt 0.960080 0.442412
vt 0.930125 0.372395
vt 0.905070 0.616254
vt 0.647556 0.489401
vt 0.722169 0.498078
vt 0.704960 0.622715
vt 0.922869 0.677281
vt 0.815390 0.629953
vt 0.759080 0.459500
vt 0.787721 0.730696
vt 0.921687 0.835684
vt 0.814010 0.463478
vt 0.750178 0.896724
vt 0.958110 0.974813
vt 0.302081 0.359446
vt 0.505703 0.371819
vt 0.669932 0.371819
vt 0.259927 0.124826
vt 0.260273 0.045144
vt 0.382368 0.124811
vt 0.382708 0.046388
vt 0.065415 0.097542
vt 0.025802 0.097297
vt 0.026584 0.070182
vt 0.541308 0.107232
vt 0.541489 0.065563
vt 0.644582 0.107751
vt 0.505703 0.302918
vt 0.644763 0.066081
vt 0.758696 0.064378
vt 0.758495 0.110599
vt 0.777617 0.204818
vt 0.835693 0.233759
vt 0.712906 0.255072
vt 0.835835 0.337989
vt 0.713112 0.336353
vt 0.777753 0.365398
vt 0.036090 0.651057
vt 0.197583 0.889471
vt 0.197583 0.962753
vt 0.036090 0.963222
vt 0.036090 0.881387
vt 0.036090 0.240848
vt 0.197583 0.260995
vt 0.302081 0.869078
vt 0.302081 0.918969
vt 0.621189 0.876011
vt 0.661635 0.764418
vt 0.197583 0.172976
vt 0.929864 0.059517
vt 0.982817 0.045143
vt 0.982966 0.131321
vt 0.929614 0.117180
vt 0.960080 0.442412
vt 0.905070 0.616254
vt 0.930125 0.372395
vt 0.627306 0.920755
vt 0.689938 0.816193
vt 0.717372 0.924322
vt 0.923077 0.677792
vt 0.815923 0.630310
vt 0.787847 0.731000
vt 0.759658 0.459757
vt 0.921653 0.836192
vt 0.813655 0.463820
vt 0.958110 0.974813
vt 0.750050 0.896971
vt 0.297430 0.192177
vt 0.658749 0.191402
vt 0.672090 0.302918
vt 0.065533 0.070472
vt 0.893783 0.203706
vt 0.958075 0.254819
vt 0.958075 0.333928
vt 0.894814 0.366709
vt 0.036090 0.167319
vn 0.8819 0.4712 -0.0124
vn 0.8242 -0.5659 -0.0227
vn 0.8378 -0.5458 -0.0130
vn 0.8828 0.4695 -0.0155
vn 0.0028 -0.9998 -0.0182
vn -0.3867 -0.9222 -0.0060
vn 0.0473 -0.9894 -0.1375
vn 0.0011 0.9966 -0.0825
vn -0.1158 0.9877 -0.1055
vn 0.4106 0.9116 -0.0188
vn 0.8458 0.4429 -0.2975
vn 0.7852 -0.5047 -0.3588
vn 0.9207 0.3257 -0.2149
vn 0.8972 -0.3536 -0.2646
vn 0.1275 0.9852 -0.1150
vn 0.1993 0.9642 -0.1746
vn 0.5116 0.8581 -0.0435
vn 0.5082 0.8601 -0.0449
vn 0.3474 0.9357 0.0617
vn -0.3330 0.9416 0.0496
vn -0.1705 0.9730 -0.1555
vn 0.5468 0.8358 -0.0501
vn -0.0985 0.9947 -0.0310
vn 0.4736 0.8749 0.1009
vn 0.9139 0.3720 -0.1623
vn 0.9996 0.0048 -0.0279
vn 0.5781 0.0886 -0.8111
vn 0.5773 0.0899 -0.8116
vn 0.5755 0.0929 -0.8125
vn 0.5811 0.0837 -0.8095
vn 0.9828 0.1555 -0.0997
vn 0.9990 -0.0254 0.0354
vn 0.9882 -0.0120 0.1530
vn 0.9890 0.1473 0.0101
vn 0.9897 0.1430 0.0032
vn 0.9869 0.0115 0.1609
vn 0.9898 0.1419 -0.0090
vn 0.9914 0.1264 0.0342
vn 0.2519 -0.9676 0.0159
vn 0.0226 -0.9997 0.0117
vn 0.1678 -0.9858 0.0115
vn 0.2226 -0.9747 0.0219
vn 0.2191 -0.9755 0.0189
vn 0.0000 -0.9983 0.0586
vn 0.0000 -0.9757 0.2189
vn -0.0003 0.0650 0.9979
vn -0.0008 0.0646 0.9979
vn -0.0005 0.0648 0.9979
vn 0.0000 0.9652 0.2615
vn 0.0000 0.9916 0.1290
vn -0.1439 -0.9896 0.0050
vn 0.0000 0.9986 -0.0528
vn 0.0001 -0.0006 1.0000
vn 0.0926 0.9955 -0.0188
vn 0.0663 -0.9598 -0.2727
vn -0.8826 0.4701 -0.0029
vn -0.8453 -0.5342 -0.0111
vn -0.8360 -0.5486 -0.0119
vn -0.8844 0.4666 -0.0112
vn -0.0149 -0.9998 -0.0138
vn -0.0527 -0.9890 -0.1381
vn 0.4005 -0.9163 -0.0031
vn -0.4082 0.9128 -0.0130
vn -0.8427 0.4496 -0.2962
vn -0.9192 0.3318 -0.2121
vn -0.7774 -0.5207 -0.3528
vn -0.8746 -0.3891 -0.2892
vn -0.5297 0.8456 -0.0659
vn -0.5118 0.8576 -0.0515
vn -0.4686 0.8788 0.0894
vn -0.9370 0.3170 -0.1470
vn -0.9965 0.0776 -0.0325
vn -0.9957 0.0869 -0.0315
vn -0.5760 0.1244 -0.8079
vn -0.5875 0.1053 -0.8023
vn -0.5803 0.1172 -0.8059
vn -0.5636 0.1442 -0.8134
vn -0.9847 0.1505 -0.0880
vn -0.9990 -0.0227 0.0385
vn -0.9890 0.1473 0.0102
vn -0.9883 -0.0146 0.1518
vn -0.9897 0.1429 0.0032
vn -0.9872 0.0082 0.1595
vn -0.9914 0.1264 0.0342
vn -0.9898 0.1419 -0.0090
vn -0.2194 -0.9755 0.0148
vn -0.2238 -0.9746 0.0125
vn 0.0000 -0.9932 -0.1167
vn 0.0000 -0.3474 -0.9377
vn 0.0000 0.0652 0.9979
vn 0.0001 -0.0005 1.0000
vn -0.0260 -0.9620 -0.2717
usemtl Material.005
s 1
f 1/1/1 2/2/2 3/3/3
f 2/2/2 1/1/1 4/4/4
f 5/5/5 6/6/6 7/7/7
f 8/8/8 9/9/9 10/10/10
f 1/1/11 3/3/12 11/11/13
f 11/11/13 3/3/12 12/12/14
f 8/8/8 13/13/15 14/14/16
f 14/14/16 1/1/11 11/11/13
f 15/15/17 16/16/18 17/17/19
f 8/8/8 18/18/20 19/19/21
f 17/17/19 11/11/22 15/15/17
f 9/9/9 20/20/23 10/10/10
f 5/5/5 7/7/7 3/3/3
f 13/13/15 1/1/11 14/14/16
f 11/11/22 17/17/19 14/14/16
f 21/21/24 17/22/19 16/23/25
f 11/11/13 12/12/14 15/15/26
f 15/15/26 12/12/14 22/24/26
f 15/15/27 23/25/28 16/26/29
f 22/24/30 23/25/28 15/15/27
f 24/27/31 16/23/25 23/28/32
f 23/28/32 25/29/33 26/30/34
f 23/28/32 27/31/35 24/27/31
f 28/32/36 25/29/33 23/28/32
f 27/31/35 29/33/37 30/34/38
f 27/31/35 26/30/34 29/33/37
f 26/30/34 27/31/35 23/28/32
f 12/12/39 31/35/40 28/36/41
f 12/12/39 28/36/41 22/24/42
f 23/37/43 22/24/42 28/36/41
f 26/38/44 32/39/44 29/40/45
f 21/21/24 16/23/25 24/27/31
f 32/39/44 33/41/45 29/40/45
f 25/42/46 28/43/47 34/44/48
f 30/45/49 35/46/49 27/47/50
f 28/36/41 31/35/40 34/48/51
f 36/49/50 27/47/50 35/46/49
f 36/49/50 37/50/52 24/51/52
f 38/52/53 10/53/53 4/54/53
f 10/53/53 6/55/53 4/54/53
f 4/54/53 6/55/53 2/56/53
f 5/57/53 2/56/53 6/55/53
f 3/3/3 2/2/2 5/5/5
f 13/13/15 4/4/4 1/1/1
f 38/58/54 4/4/4 13/13/15
f 3/3/12 7/7/7 12/12/14
f 12/12/14 7/7/7 31/35/55
f 6/6/6 31/35/55 7/7/7
f 8/8/8 17/17/19 18/18/20
f 39/59/56 40/60/57 41/61/58
f 41/61/58 42/62/59 39/59/56
f 43/63/60 44/64/61 6/6/62
f 38/58/54 13/13/15 10/10/63
f 39/59/64 45/65/65 40/60/66
f 45/65/65 46/66/67 40/60/66
f 8/8/8 19/19/21 9/9/9
f 19/19/21 45/65/65 39/59/64
f 47/67/68 18/18/20 48/68/68
f 14/14/16 17/17/19 8/8/8
f 18/18/20 47/67/68 45/65/69
f 10/10/63 13/13/15 8/8/8
f 43/63/60 40/69/57 44/64/61
f 9/9/9 19/19/21 39/59/64
f 49/70/70 18/71/20 17/72/19
f 37/50/52 49/70/70 21/73/24
f 45/65/69 19/19/21 18/18/20
f 49/74/70 48/75/71 18/76/20
f 45/65/65 47/67/72 46/66/67
f 47/67/72 50/77/73 46/66/67
f 47/67/74 48/78/75 51/79/76
f 50/77/77 47/67/74 51/79/76
f 37/80/78 51/81/79 48/75/71
f 51/81/79 32/82/80 52/83/81
f 51/81/79 37/80/78 36/84/82
f 34/85/83 51/81/79 52/83/81
f 36/84/82 35/86/84 33/87/85
f 36/84/82 33/87/85 32/82/80
f 32/82/80 51/81/79 36/84/82
f 46/88/86 34/48/51 31/35/40
f 46/88/86 50/89/87 34/48/51
f 51/90/87 34/48/51 50/89/87
f 32/39/44 26/38/44 52/91/88
f 49/74/70 37/80/78 48/75/71
f 29/40/89 33/41/89 30/45/89
f 52/91/90 25/42/46 34/44/48
f 35/46/89 30/45/89 33/41/89
f 26/38/44 25/42/88 52/91/88
f 24/51/52 27/47/50 36/49/50
f 21/73/24 24/51/52 37/50/52
f 20/92/53 42/93/53 10/53/53
f 10/53/53 42/93/53 6/55/53
f 42/93/53 41/94/53 6/55/53
f 43/95/91 6/55/53 41/94/53
f 40/69/57 43/63/60 41/96/58
f 9/9/9 39/59/56 42/62/59
f 20/20/23 9/9/9 42/62/59
f 40/69/66 46/88/67 44/64/61
f 46/88/67 31/35/92 44/64/61
f 6/6/62 44/64/61 31/35/92
f 21/73/24 49/70/70 17/72/19
