# Blender v2.80 (sub 41) OBJ File: ''
# www.blender.org
mtllib weapon1.mtl
v 0.319219 0.542095 -0.542937
v 0.319219 0.189502 -0.542937
v 0.319219 0.189502 -1.728476
v 0.319669 0.185399 -4.014113
v 0.252235 0.189502 2.959582
v 1.008003 0.189502 2.421500
v 0.319219 0.189502 1.080574
v 1.612691 0.189502 -1.453677
v 1.245479 0.000000 -2.709722
v 0.967621 0.189502 -1.537413
v 0.319219 -0.542095 -0.542937
v 0.319219 -0.189502 -1.728476
v 0.319219 -0.189502 -0.542937
v 0.319669 -0.185399 -4.014113
v -0.252235 0.189502 2.959582
v -0.319669 -0.185399 -4.014113
v -0.319669 0.185399 -4.014113
v -0.319219 -0.189502 -1.728476
v -0.319219 0.189502 -1.728476
v 0.252235 -0.189502 2.959582
v 0.319219 -0.189502 1.080574
v 1.008003 -0.189502 2.421500
v 1.612691 -0.189502 -1.453677
v -0.319219 0.189502 1.080574
v -0.319219 0.542095 -0.542937
v 0.967621 -0.189502 -1.537413
v -0.319219 0.189502 -0.542937
v -1.008003 0.189502 2.421500
v -1.612691 0.189502 -1.453677
v -0.967621 0.189502 -1.537413
v -1.245479 0.000000 -2.709722
v -0.319219 -0.542095 -0.542937
v -0.319219 -0.189502 -0.542937
v -0.252235 -0.189502 2.959582
v -1.008003 -0.189502 2.421500
v -0.319219 -0.189502 1.080574
v -1.612691 -0.189502 -1.453677
v -0.967621 -0.189502 -1.537413
vt 0.869914 0.703065
vt 0.804953 0.706976
vt 0.809178 0.520145
vt 0.822158 0.151689
vt 0.361296 0.988900
vt 0.215149 0.899927
vt 0.348343 0.678204
vt 0.098218 0.259164
vt 0.842063 0.963971
vt 0.348343 0.409756
vt 0.168858 0.047965
vt 0.222958 0.245318
vt 0.348342 0.213726
vt 0.660433 0.705951
vt 0.735821 0.517402
vt 0.728677 0.708502
vt 0.750390 0.149006
vt 0.458848 0.988900
vt 0.932117 0.020625
vt 0.751690 0.125267
vt 0.751690 0.020625
vt 0.809527 0.520008
vt 0.736172 0.517266
vt 0.822508 0.151552
vt 0.458413 0.987788
vt 0.471366 0.677093
vt 0.604560 0.898816
vt 0.721492 0.258053
vt 0.718893 0.970200
vt 0.471801 0.678204
vt 0.990912 0.702406
vt 0.970970 0.975593
vt 0.471367 0.408644
vt 0.596751 0.244207
vt 0.650852 0.046854
vt 0.471367 0.212614
vt 0.660783 0.705814
vt 0.729027 0.708365
vt 0.750740 0.148869
vt 0.604994 0.899927
vt 0.721926 0.259164
vt 0.719243 0.970063
vt 0.471801 0.409756
vt 0.597186 0.245318
vt 0.651286 0.047965
vt 0.471801 0.213726
vt 0.870264 0.702928
vt 0.805303 0.706839
vt 0.932117 0.125267
vt 0.360861 0.987788
vt 0.214715 0.898816
vt 0.347908 0.677093
vt 0.097784 0.258053
vt 0.842413 0.963834
vt 0.946015 0.152243
vt 0.347908 0.408644
vt 0.168423 0.046854
vt 0.222524 0.244207
vt 0.347908 0.212614
vt 0.460697 0.052429
vt 0.460697 0.227626
vt 0.361242 0.227626
vt 0.361242 0.052429
vt 0.360695 0.227582
vt 0.360695 0.052385
vt 0.460151 0.227582
vt 0.460151 0.052385
vt 0.410969 0.494000
vt 0.410423 0.493955
vt 0.082082 0.794974
vt 0.018224 0.794974
vt 0.050153 0.981766
vt 0.081819 0.794684
vt 0.049890 0.981476
vt 0.017962 0.794684
vt 0.081819 0.241461
vt 0.017962 0.241461
vt 0.082082 0.241751
vt 0.018224 0.241751
vt 0.081819 0.093422
vt 0.082082 0.093713
vt 0.018224 0.093713
vt 0.017962 0.093422
vt 0.081819 0.008425
vt 0.017962 0.008425
vt 0.991263 0.702269
vt 0.946365 0.152106
vt 0.971320 0.975456
vn 1.0000 -0.0000 0.0000
vn 1.0000 -0.0004 0.0002
vn 1.0000 -0.0000 0.0002
vn -0.0000 1.0000 0.0000
vn 0.0201 0.9877 -0.1549
vn 1.0000 0.0004 0.0002
vn 0.0000 0.0000 -1.0000
vn -1.0000 0.0004 0.0002
vn -1.0000 -0.0004 0.0002
vn -1.0000 0.0000 0.0002
vn 0.0000 -1.0000 -0.0000
vn 0.0000 0.9984 0.0557
vn 0.0000 0.9772 0.2122
vn 0.0201 -0.9877 -0.1549
vn -1.0000 -0.0000 0.0000
vn -0.0201 0.9877 -0.1549
vn 0.0000 0.9948 -0.1022
vn -0.0201 -0.9877 -0.1549
vn 0.2827 0.0000 -0.9592
vn -0.2827 0.0000 -0.9592
vn -0.9730 0.0000 -0.2306
vn 0.9730 0.0000 -0.2306
vn 0.9985 0.0000 -0.0541
vn 0.9598 0.0000 -0.2806
vn -0.9985 0.0000 -0.0541
vn -0.9598 0.0000 -0.2806
vn -0.8507 0.0000 0.5256
vn 0.8507 0.0000 0.5256
vn -0.3044 0.0000 0.9525
vn 0.3044 0.0000 0.9525
vn 0.0000 -0.9984 0.0557
vn 0.0000 -0.9948 -0.1022
vn 0.0000 -0.9772 0.2122
usemtl Material.008
s 1
f 1/1/1 2/2/1 3/3/2
f 3/3/2 4/4/3 1/1/1
f 5/5/4 6/6/4 7/7/4
f 8/8/4 7/7/4 6/6/4
f 7/9/1 2/2/1 1/1/1
f 7/7/4 8/8/4 2/10/4
f 8/8/5 9/11/5 10/12/5
f 2/10/4 8/8/4 10/12/4
f 2/10/4 10/12/4 3/13/4
f 11/14/1 12/15/6 13/16/1
f 12/15/6 11/14/1 14/17/3
f 5/5/4 7/7/4 15/18/4
f 3/3/2 14/17/3 4/4/3
f 4/19/7 16/20/7 17/21/7
f 18/22/8 19/23/9 16/24/10
f 20/25/11 21/26/11 22/27/11
f 23/28/11 22/27/11 21/26/11
f 21/29/1 11/14/1 13/16/1
f 15/18/4 7/7/4 24/30/4
f 25/31/12 24/32/13 1/1/12
f 21/26/11 13/33/11 23/28/11
f 23/28/14 26/34/14 9/35/14
f 13/33/11 26/34/11 23/28/11
f 13/33/11 12/36/11 26/34/11
f 25/37/15 19/23/9 27/38/15
f 19/23/9 25/37/15 17/39/10
f 15/18/4 24/30/4 28/40/4
f 29/41/4 28/40/4 24/30/4
f 24/42/15 25/37/15 27/38/15
f 24/30/4 27/43/4 29/41/4
f 29/41/16 30/44/16 31/45/16
f 27/43/4 30/44/4 29/41/4
f 27/43/4 19/46/4 30/44/4
f 32/47/15 33/48/15 18/22/8
f 18/22/8 16/24/10 32/47/15
f 1/1/12 4/4/17 25/31/12
f 12/15/6 14/17/3 3/3/2
f 17/39/10 16/24/10 19/23/9
f 14/49/7 16/20/7 4/19/7
f 34/50/11 35/51/11 36/52/11
f 37/53/11 36/52/11 35/51/11
f 36/54/15 33/48/15 32/47/15
f 25/31/12 4/4/17 17/55/17
f 7/9/13 1/1/12 24/32/13
f 36/52/11 37/53/11 33/56/11
f 37/53/18 31/57/18 38/58/18
f 33/56/11 37/53/11 38/58/11
f 33/56/11 38/58/11 18/59/11
f 3/60/19 10/61/19 26/62/19
f 12/63/19 3/60/19 26/62/19
f 30/64/20 19/65/20 38/66/20
f 18/67/20 38/66/20 19/65/20
f 10/61/21 9/68/21 26/62/21
f 30/64/22 38/66/22 31/69/22
f 8/70/23 23/71/23 9/72/24
f 29/73/25 31/74/26 37/75/25
f 29/73/25 37/75/25 28/76/27
f 37/75/25 35/77/27 28/76/27
f 8/70/23 6/78/28 23/71/23
f 23/71/23 6/78/28 22/79/28
f 28/76/27 35/77/27 15/80/29
f 6/78/28 5/81/30 22/79/28
f 22/79/28 5/81/30 20/82/30
f 35/77/27 34/83/29 15/80/29
f 5/84/30 15/80/29 20/85/30
f 15/80/29 34/83/29 20/85/30
f 11/86/31 16/24/32 14/87/32
f 16/24/32 11/86/31 32/47/31
f 11/86/31 21/88/33 32/47/31
f 32/47/31 21/88/33 36/54/33
f 21/26/11 20/25/11 36/52/11
f 36/52/11 20/25/11 34/50/11
