# Blender v2.80 (sub 41) OBJ File: ''
# www.blender.org
mtllib weapon5.mtl
v 0.812816 1.337773 2.610810
v 0.677242 1.052210 4.372904
v 0.777311 0.403457 3.073651
v 0.677039 0.279379 4.375541
v 0.838040 0.468127 2.290112
v 0.837884 -0.013215 2.287179
v 1.112218 -0.030078 -1.278049
v 1.112127 0.505782 -1.277657
v 0.658263 0.499233 -0.661003
v 0.584979 0.470186 2.289651
v 0.470345 0.910853 2.451664
v 0.604079 -0.114280 4.183526
v 0.623148 0.391631 3.069920
v 0.603639 0.292159 4.190532
v 0.637090 -0.023453 2.291979
v 0.667776 -0.759464 0.507203
v 0.220510 -0.365571 2.732791
v 0.228689 -0.639453 1.178369
v -0.604081 -0.114280 4.183526
v -0.220511 -0.365571 2.732791
v -0.677041 0.279379 4.375541
v -0.603640 0.292159 4.190532
v -0.677244 1.052210 4.372904
v -0.812817 1.337773 2.610810
v 0.906581 -1.449382 -0.247457
v 1.092954 -0.374520 -1.548341
v 0.783486 -1.095796 -0.039908
v 0.903454 -0.030857 -1.146495
v 0.569887 -2.150049 -0.648576
v 0.758381 -0.900077 -2.168170
v -0.000001 -2.476537 -0.828102
v -0.000001 -1.215338 -2.526867
v 0.689359 -0.030260 -0.670895
v 0.125432 0.556326 -3.188323
v 0.125432 0.473832 -4.522816
v 0.140557 0.792756 -3.961690
v 0.125432 0.504146 -1.023734
v 0.647295 0.504724 -1.278356
v 0.648421 -0.020950 -1.279490
v 0.443944 -0.031188 -1.146615
v 0.125432 0.072377 -0.991585
v 0.495342 1.094734 -0.090814
v -0.000001 1.142744 2.534921
v -0.000001 1.354434 0.155098
v -0.110384 -1.247000 2.775579
v 0.110382 -1.247000 2.775579
v -0.228691 -0.639453 1.178369
v 0.132954 -1.146557 1.422114
v -0.132956 -1.146557 1.422114
v 0.125432 0.058490 -2.334897
v -0.125432 0.072377 -0.991585
v 0.125432 -0.077716 -4.546972
v 0.125432 -0.396635 -4.587211
v 0.125432 -0.396635 -2.449212
v 0.189029 1.222309 -4.682773
v -0.777313 0.403457 3.073651
v -0.838041 0.468127 2.290112
v -0.837886 -0.013215 2.287179
v -1.112218 -0.030078 -1.278049
v -1.112129 0.505782 -1.277657
v -0.658265 0.499233 -0.661003
v -0.584980 0.470186 2.289651
v -0.470347 0.910853 2.451664
v -0.623150 0.391631 3.069920
v -0.637092 -0.023453 2.291979
v -0.667778 -0.759464 0.507203
v -0.906583 -1.449382 -0.247457
v -0.783488 -1.095796 -0.039908
v -1.092956 -0.374520 -1.548341
v -0.903456 -0.030857 -1.146495
v -0.569889 -2.150049 -0.648576
v -0.758383 -0.900077 -2.168170
v -0.689361 -0.030260 -0.670895
v -0.125432 0.556326 -3.188323
v -0.140559 0.792756 -3.961690
v -0.125432 0.473832 -4.522816
v -0.125432 0.504146 -1.023734
v -0.647297 0.504724 -1.278356
v -0.648423 -0.020950 -1.279490
v -0.443945 -0.031188 -1.146615
v -0.495344 1.094734 -0.090814
v -0.125432 -0.077716 -4.546972
v -0.125432 -0.396635 -4.587211
v -0.125432 0.058490 -2.334897
v -0.125432 -0.396635 -2.449212
v -0.189030 1.222309 -4.682773
vt 0.274893 0.168215
vt 0.107007 0.183397
vt 0.206859 0.070517
vt 0.079873 0.076137
vt 0.280689 0.072925
vt 0.280540 0.026668
vt 0.616194 0.021834
vt 0.616627 0.073328
vt 0.731895 0.168723
vt 0.987877 0.205167
vt 0.675086 0.204949
vt 0.989544 0.182586
vt 0.361741 0.190106
vt 0.317666 0.201125
vt 0.361907 0.165787
vt 0.174811 0.933327
vt 0.302672 0.989385
vt 0.173990 0.979677
vt 0.301207 0.989385
vt 0.391643 0.941917
vt 0.599531 0.856249
vt 0.548460 0.732319
vt 0.535260 0.743022
vt 0.425570 0.727790
vt 0.425472 0.742312
vt 0.341817 0.722714
vt 0.342717 0.741577
vt 0.475918 0.528917
vt 0.008805 0.536889
vt 0.193064 0.584893
vt 0.390591 0.583869
vt 0.041199 0.939576
vt 0.193064 0.640085
vt 0.008805 0.688090
vt 0.549863 0.857390
vt 0.536511 0.850691
vt 0.107315 0.326913
vt 0.274893 0.339942
vt 0.009144 0.183749
vt 0.686235 0.772653
vt 0.843319 0.887534
vt 0.662225 0.815447
vt 0.795782 0.930959
vt 0.728229 0.681599
vt 0.912128 0.813958
vt 0.761651 0.611069
vt 0.972527 0.730858
vt 0.736303 0.937014
vt 0.853883 0.413902
vt 0.859892 0.261097
vt 0.825827 0.328913
vt 0.699271 0.119670
vt 0.680533 0.165347
vt 0.637707 0.154979
vt 0.629032 0.195624
vt 0.020397 0.765381
vt 0.007413 0.746496
vt 0.019341 0.722247
vt 0.006521 0.702947
vt 0.662361 0.104518
vt 0.625661 0.269268
vt 0.390259 0.271999
vt 0.673654 0.208277
vt 0.401850 0.228899
vt 0.384262 0.320665
vt 0.604900 0.321732
vt 0.143317 0.769080
vt 0.167080 0.839601
vt 0.132277 0.838427
vt 0.160739 0.769668
vt 0.355272 0.821522
vt 0.354742 0.758060
vt 0.376080 0.771525
vt 0.267858 0.773232
vt 0.288861 0.813103
vt 0.064469 0.741271
vt 0.029102 0.798924
vt 0.724550 0.523481
vt 0.699802 0.412373
vt 0.762911 0.373615
vt 0.686579 0.523084
vt 0.671407 0.479217
vt 0.750755 0.539084
vt 0.909463 0.537187
vt 0.907812 0.656585
vt 0.935536 0.656821
vt 0.924521 0.258802
vt 0.960056 0.255830
vt 0.909075 0.508121
vt 0.860087 0.653119
vt 0.960056 0.495316
vt 0.770524 0.253128
vt 0.193542 0.441752
vt 0.084962 0.437517
vt 0.270481 0.442169
vt 0.269571 0.488418
vt 0.605096 0.499043
vt 0.606377 0.447563
vt 0.731894 0.047521
vt 0.675085 0.011296
vt 0.987876 0.011073
vt 0.989544 0.033654
vt 0.361742 0.318049
vt 0.361907 0.342369
vt 0.317666 0.307031
vt 0.174810 0.933291
vt 0.174401 0.979886
vt 0.302965 0.990199
vt 0.391747 0.941865
vt 0.595640 0.855768
vt 0.427182 0.868248
vt 0.426764 0.853732
vt 0.343481 0.871553
vt 0.343965 0.852675
vt 0.475918 0.696060
vt 0.390591 0.641109
vt 0.041463 0.986172
vt 0.294539 0.261829
vt 0.009120 0.326894
vt 0.683365 0.773243
vt 0.658831 0.815739
vt 0.839024 0.890047
vt 0.790957 0.932885
vt 0.726475 0.682713
vt 0.908733 0.817323
vt 0.760761 0.612599
vt 0.970149 0.734972
vt 0.731409 0.938208
vt 0.853275 0.413941
vt 0.824908 0.326948
vt 0.859880 0.262832
vt 0.699271 0.096575
vt 0.680532 0.050897
vt 0.637707 0.061266
vt 0.629031 0.020621
vt 0.021154 0.833922
vt 0.021050 0.877068
vt 0.008590 0.853089
vt 0.008659 0.896646
vt 0.662361 0.111727
vt 0.625153 0.374393
vt 0.672554 0.435846
vt 0.389788 0.369387
vt 0.400962 0.412597
vt 0.161029 0.752238
vt 0.318569 0.798362
vt 0.268207 0.752238
vt 0.503894 0.755634
vt 0.503894 0.840019
vt 0.065747 0.857054
vt 0.029117 0.800196
vt 0.798022 0.524276
vt 0.825168 0.413730
vt 0.852110 0.481172
vt 0.835992 0.524700
vt 0.771485 0.539309
vt 0.922215 0.258973
vt 0.958205 0.253771
vt 0.911326 0.509453
vt 0.907704 0.656625
vt 0.860720 0.652912
vt 0.962571 0.495593
vt 0.770762 0.253428
vt 0.556291 0.710541
vt 0.556291 0.514437
vt 0.607602 0.725946
vt 0.607602 0.499031
vt 0.708642 0.541168
vt 0.708642 0.683809
vt 0.755271 0.612489
vt 0.937187 0.538198
vt 0.909463 0.537962
vt 0.915921 0.535375
vt 0.966901 0.522570
vt 0.988156 0.495316
vt 0.988156 0.255830
vt 0.958006 0.228615
vt 0.923134 0.231242
vt 0.861719 0.231649
vt 0.776891 0.212460
vt 0.431826 0.121064
vt 0.356345 0.125527
vt 0.431826 0.095184
vt 0.356344 0.090722
vt 0.504553 0.096576
vt 0.504553 0.119671
vt 0.752601 0.344337
vt 0.685388 0.305532
vt 0.630411 0.318217
vn 0.9970 0.0003 0.0770
vn 0.9970 0.0000 0.0768
vn 0.9970 0.0000 0.0770
vn 0.9970 -0.0004 0.0771
vn 0.9970 -0.0008 0.0769
vn 0.9971 0.0000 0.0766
vn 0.9971 0.0001 0.0766
vn 0.0004 0.9999 0.0103
vn 0.0074 0.9999 0.0101
vn -0.0015 1.0000 0.0095
vn 0.0081 0.9999 0.0100
vn 0.0045 0.3461 -0.9382
vn 0.0038 0.3487 -0.9372
vn 0.9998 0.0006 0.0175
vn 0.9998 0.0008 0.0175
vn 0.9998 -0.0004 0.0175
vn 0.9977 0.0479 0.0479
vn 0.0152 -0.9971 -0.0749
vn 0.0329 -0.9961 -0.0815
vn 0.0693 -0.9759 0.2068
vn 0.0700 -0.9765 0.2041
vn 0.0533 -0.9713 0.2317
vn 0.0553 -0.9671 0.2484
vn -0.0009 -0.9306 0.3661
vn -0.0014 -0.9853 0.1710
vn -0.0047 -0.9851 0.1720
vn -0.0022 -0.9846 0.1746
vn 0.0000 -0.0172 0.9999
vn 0.0047 -0.9851 0.1720
vn 0.0014 -0.9853 0.1710
vn -0.0152 -0.9971 -0.0749
vn -0.0329 -0.9961 -0.0815
vn 0.0000 0.9871 0.1600
vn 0.0000 0.0034 1.0000
vn 0.9914 -0.1251 0.0387
vn 0.9918 -0.1244 0.0293
vn 0.9598 0.1769 0.2179
vn 0.9200 0.2277 0.3189
vn 0.7424 -0.5619 -0.3649
vn 0.7458 -0.5549 -0.3685
vn -0.0000 -0.8082 -0.5889
vn -0.0000 -0.8029 -0.5961
vn 0.9302 0.2320 0.2844
vn 1.0000 -0.0056 0.0003
vn 0.9993 -0.0372 0.0075
vn 0.9981 -0.0617 0.0082
vn 0.0001 0.9998 0.0222
vn 0.0000 1.0000 0.0089
vn 0.0015 0.0022 -1.0000
vn 0.0022 0.0015 -1.0000
vn 0.0024 0.0014 -1.0000
vn 0.0031 0.0007 -1.0000
vn -0.4536 -0.5015 -0.7367
vn -0.0425 -0.9907 -0.1291
vn -0.0043 -0.9998 -0.0196
vn -0.0030 -0.9999 -0.0107
vn -0.4821 0.0009 -0.8761
vn -0.4585 -0.0355 -0.8880
vn -0.4647 -0.0262 -0.8851
vn -0.4375 -0.0668 -0.8968
vn 0.8688 0.4931 0.0442
vn 0.7436 0.6659 0.0608
vn 0.9703 0.2403 0.0268
vn 0.9698 0.2425 0.0265
vn -0.0000 0.9961 0.0886
vn -0.0000 0.9969 0.0789
vn 0.0000 0.0485 0.9988
vn 0.0000 -0.4332 -0.9013
vn 0.9923 -0.1236 0.0074
vn 0.9874 -0.1558 0.0269
vn 0.9907 -0.1352 0.0144
vn 0.9850 -0.1691 0.0350
vn 0.0100 -0.9999 0.0053
vn -0.4991 -0.3454 -0.7947
vn -0.0318 0.7644 -0.6440
vn -0.0061 0.7608 -0.6490
vn 0.0000 0.7622 -0.6473
vn -0.0004 0.7599 -0.6500
vn 0.0018 0.7616 -0.6481
vn -0.0260 0.7670 -0.6412
vn 0.0000 -0.9999 0.0103
vn 1.0000 0.0000 0.0000
vn 0.9966 -0.0806 0.0190
vn -0.9970 0.0003 0.0770
vn -0.9970 0.0000 0.0770
vn -0.9970 0.0000 0.0768
vn -0.9970 -0.0004 0.0771
vn -0.9970 -0.0008 0.0769
vn -0.9971 0.0000 0.0766
vn -0.9971 0.0001 0.0766
vn -0.0004 0.9999 0.0103
vn 0.0015 1.0000 0.0095
vn -0.0074 0.9999 0.0101
vn -0.0081 0.9999 0.0100
vn -0.0045 0.3461 -0.9382
vn -0.0038 0.3487 -0.9372
vn -0.9998 0.0006 0.0175
vn -0.9998 0.0008 0.0175
vn -0.9998 -0.0004 0.0175
vn -0.9977 0.0479 0.0479
vn -0.0693 -0.9759 0.2068
vn -0.0700 -0.9765 0.2041
vn -0.0533 -0.9713 0.2317
vn -0.0553 -0.9671 0.2484
vn 0.0009 -0.9306 0.3661
vn 0.0022 -0.9846 0.1746
vn -0.0000 0.3567 -0.9342
vn -0.9914 -0.1251 0.0387
vn -0.9598 0.1769 0.2179
vn -0.9918 -0.1244 0.0293
vn -0.9200 0.2277 0.3189
vn -0.7424 -0.5619 -0.3649
vn -0.7458 -0.5549 -0.3685
vn -0.9302 0.2320 0.2844
vn -1.0000 -0.0056 0.0003
vn -0.9981 -0.0617 0.0082
vn -0.9993 -0.0372 0.0075
vn -0.0008 0.9999 0.0106
vn -0.0015 0.0022 -1.0000
vn -0.0024 0.0014 -1.0000
vn -0.0022 0.0015 -1.0000
vn -0.0031 0.0007 -1.0000
vn 0.4536 -0.5015 -0.7367
vn 0.0043 -0.9998 -0.0196
vn 0.0425 -0.9907 -0.1291
vn 0.0030 -0.9999 -0.0107
vn 0.4821 0.0009 -0.8761
vn 0.4647 -0.0262 -0.8851
vn 0.4585 -0.0355 -0.8880
vn 0.4375 -0.0668 -0.8968
vn -0.8688 0.4931 0.0442
vn -0.9703 0.2403 0.0268
vn -0.7436 0.6659 0.0608
vn -0.9698 0.2425 0.0265
vn 0.0000 -0.9973 -0.0740
vn -0.9923 -0.1236 0.0074
vn -0.9907 -0.1352 0.0144
vn -0.9874 -0.1558 0.0269
vn -0.9850 -0.1691 0.0350
vn -0.0100 -0.9999 0.0053
vn 0.4991 -0.3454 -0.7947
vn 0.0318 0.7644 -0.6440
vn 0.0061 0.7608 -0.6490
vn -0.0018 0.7616 -0.6481
vn 0.0004 0.7599 -0.6500
vn 0.0260 0.7670 -0.6412
vn -1.0000 0.0000 0.0000
vn -0.9966 -0.0806 0.0190
vn 0.0000 -0.6737 0.7390
vn 0.0000 -0.5017 0.8650
vn 0.0000 -0.4934 0.8698
vn 0.0000 -0.4818 0.8763
vn 0.0000 -0.2436 0.9699
vn 0.0000 -1.0000 -0.0000
vn 0.0000 0.1252 -0.9921
vn 0.0000 0.0845 -0.9964
vn 0.0000 -0.0866 -0.9962
vn 0.0000 -0.2090 -0.9779
vn 0.0000 0.9131 0.4076
vn 0.0000 0.8591 0.5118
vn 0.0000 0.9870 0.1605
vn 0.0000 0.6916 -0.7223
vn 0.0000 0.6905 -0.7233
vn 0.0000 0.6876 -0.7261
usemtl Material.002
s 1
f 1/1/1 2/2/2 3/3/3
f 4/4/2 3/3/3 2/2/2
f 1/1/1 3/3/3 5/5/4
f 3/3/3 6/6/5 5/5/4
f 6/6/5 7/7/6 5/5/4
f 5/5/4 7/7/6 8/8/7
f 9/9/8 5/10/9 8/11/10
f 5/10/9 9/9/8 10/12/11
f 10/13/12 11/14/12 5/15/12
f 5/15/12 11/14/12 1/1/13
f 12/16/14 13/17/15 14/18/15
f 13/19/15 12/16/14 15/20/16
f 16/21/17 15/20/16 12/16/14
f 4/22/18 14/23/19 3/24/20
f 14/23/19 13/25/21 3/24/20
f 3/24/20 13/25/21 6/26/22
f 13/25/21 15/27/23 6/26/22
f 16/28/24 12/29/25 17/30/26
f 17/30/26 18/31/27 16/28/24
f 12/16/28 14/18/28 19/32/28
f 20/33/29 12/29/25 19/34/30
f 4/22/18 21/35/31 22/36/32
f 1/1/33 23/37/33 2/2/33
f 24/38/33 23/37/33 1/1/33
f 2/2/34 23/37/34 4/39/34
f 25/40/35 26/41/36 27/42/37
f 28/43/38 27/42/37 26/41/36
f 25/40/35 29/44/39 26/41/36
f 26/41/36 29/44/39 30/45/40
f 29/44/39 31/46/41 30/45/40
f 30/45/40 31/46/41 32/47/42
f 15/20/16 16/21/17 33/48/43
f 16/21/17 27/42/37 33/48/43
f 28/43/38 33/48/43 27/42/37
f 34/49/44 35/50/45 36/51/46
f 37/52/47 9/9/8 38/53/48
f 38/53/48 9/9/8 8/11/10
f 38/53/49 8/11/50 39/54/51
f 7/55/52 39/54/51 8/11/50
f 40/56/53 39/57/54 28/58/55
f 28/58/55 39/57/54 7/59/56
f 39/54/57 41/60/58 38/53/59
f 38/53/59 41/60/58 37/52/60
f 42/61/61 11/62/62 9/63/63
f 9/63/63 11/62/62 10/64/64
f 43/65/65 11/62/62 44/66/66
f 11/62/62 42/61/61 44/66/66
f 45/67/67 17/68/67 20/69/67
f 45/67/67 46/70/67 17/68/67
f 47/71/68 48/72/68 49/73/68
f 46/70/69 48/74/70 17/68/71
f 17/68/71 48/74/70 18/75/72
f 15/27/23 33/76/73 6/26/22
f 33/76/73 28/58/55 6/26/22
f 6/26/22 28/58/55 7/59/56
f 39/57/54 40/56/53 41/77/74
f 40/78/75 30/79/76 32/80/77
f 40/78/75 28/81/78 26/82/79
f 26/82/79 30/79/76 40/78/75
f 40/78/75 32/80/77 41/83/80
f 50/84/81 41/85/81 51/86/81
f 34/49/44 52/87/82 35/50/45
f 53/88/82 52/87/82 50/89/82
f 41/85/82 50/89/82 37/90/82
f 34/49/44 50/89/82 52/87/82
f 54/91/82 53/88/82 50/89/82
f 34/49/44 37/90/82 50/89/82
f 55/92/83 36/51/46 35/50/45
f 24/38/84 56/93/85 23/37/86
f 21/94/86 23/37/86 56/93/85
f 24/38/84 57/95/87 56/93/85
f 56/93/85 57/95/87 58/96/88
f 58/96/88 57/95/87 59/97/89
f 57/95/87 60/98/90 59/97/89
f 61/99/91 60/100/92 57/101/93
f 57/101/93 62/102/94 61/99/91
f 62/103/95 57/104/95 63/105/95
f 57/104/95 24/38/96 63/105/95
f 19/106/97 22/107/98 64/108/98
f 64/108/98 65/109/99 19/106/97
f 66/110/100 19/106/97 65/109/99
f 21/35/31 56/111/101 22/36/32
f 22/36/32 56/111/101 64/112/102
f 56/111/101 58/113/103 64/112/102
f 64/112/102 58/113/103 65/114/104
f 66/115/105 20/33/29 19/34/30
f 20/33/29 66/115/105 47/116/106
f 14/23/19 4/22/18 22/36/32
f 22/117/28 19/32/28 14/18/28
f 1/1/13 43/118/107 24/38/96
f 21/119/34 4/39/34 23/37/34
f 11/14/12 43/118/107 1/1/13
f 63/105/95 24/38/96 43/118/107
f 67/120/108 68/121/109 69/122/110
f 70/123/111 69/122/110 68/121/109
f 67/120/108 69/122/110 71/124/112
f 69/122/110 72/125/113 71/124/112
f 71/124/112 72/125/113 31/126/41
f 72/125/113 32/127/42 31/126/41
f 65/109/99 73/128/114 66/110/100
f 66/110/100 73/128/114 68/121/109
f 70/123/111 68/121/109 73/128/114
f 74/129/115 75/130/116 76/131/117
f 77/132/118 78/133/48 61/99/91
f 78/133/48 60/100/92 61/99/91
f 78/133/119 79/134/120 60/100/121
f 59/135/122 60/100/121 79/134/120
f 80/136/123 70/137/124 79/138/125
f 70/137/124 59/139/126 79/138/125
f 79/134/127 78/133/128 51/140/129
f 78/133/128 77/132/130 51/140/129
f 81/141/131 61/142/132 63/143/133
f 61/142/132 62/144/134 63/143/133
f 43/65/65 44/66/66 63/143/133
f 63/143/133 44/66/66 81/141/131
f 12/29/25 20/33/29 17/30/26
f 46/70/135 45/145/135 48/74/135
f 47/71/68 18/146/68 48/72/68
f 49/147/135 48/74/135 45/145/135
f 45/148/136 20/149/137 49/73/138
f 20/149/137 47/71/139 49/73/138
f 65/114/104 58/113/103 73/150/140
f 73/150/140 58/113/103 70/137/124
f 58/113/103 59/139/126 70/137/124
f 79/138/125 51/151/141 80/136/123
f 80/152/142 32/80/77 72/153/143
f 80/152/142 69/154/144 70/155/145
f 69/154/144 80/152/142 72/153/143
f 80/152/142 51/156/146 32/80/77
f 32/80/77 51/156/146 41/83/80
f 74/129/115 76/131/117 82/157/147
f 83/158/147 84/159/147 82/157/147
f 51/160/147 77/161/147 84/159/147
f 74/129/115 82/157/147 84/159/147
f 85/162/147 84/159/147 83/158/147
f 74/129/115 84/159/147 77/161/147
f 86/163/148 76/131/117 75/130/116
f 66/115/105 16/28/24 47/116/106
f 18/31/27 47/116/106 16/28/24
f 68/164/149 16/28/24 66/115/105
f 16/28/24 68/164/149 27/165/149
f 68/164/149 67/166/150 27/165/149
f 27/165/149 67/166/150 25/167/150
f 29/168/151 25/167/150 67/166/150
f 67/166/150 71/169/151 29/168/151
f 29/168/151 71/169/151 31/170/152
f 84/171/81 50/172/81 51/86/81
f 50/89/153 84/173/153 54/91/153
f 84/173/153 85/174/153 54/91/153
f 85/175/154 83/176/154 54/91/154
f 54/91/154 83/176/154 53/88/154
f 83/177/155 82/178/156 53/88/155
f 53/88/155 82/178/156 52/87/156
f 52/87/156 82/178/156 35/50/157
f 82/178/156 76/179/157 35/50/157
f 86/180/158 35/50/157 76/179/157
f 35/50/157 86/180/158 55/92/158
f 36/181/159 55/182/160 75/183/159
f 86/184/160 75/183/159 55/182/160
f 74/185/161 36/181/159 75/183/159
f 36/181/159 74/185/161 34/186/161
f 74/185/161 77/132/118 37/52/47
f 37/52/47 34/186/161 74/185/161
f 61/99/91 9/9/8 77/132/118
f 9/9/8 37/52/47 77/132/118
f 61/142/162 81/141/163 9/187/162
f 9/187/162 81/141/163 42/188/163
f 44/189/164 42/188/163 81/141/163
