# Blender v2.80 (sub 41) OBJ File: ''
# www.blender.org
mtllib weapon7.mtl
v 1.710443 0.724858 1.257156
v 0.350085 0.909497 -0.948506
v 1.212073 1.171240 1.257156
v 1.326947 0.143411 1.656100
v 1.229920 0.143411 -0.948237
v 0.458190 0.907303 1.655384
v 0.696520 -0.380955 1.656823
v 1.326947 -0.951718 1.656100
v -0.000000 -0.776721 1.656100
v 0.564463 -1.668027 1.656100
v 1.229920 -0.871590 -0.948237
v 0.247749 0.146114 -0.947857
v -0.000000 -0.636711 -1.685373
v 0.196947 0.126412 -2.594904
v 0.236864 0.239942 -1.804572
v 0.590721 -0.716069 -4.077332
v 0.380798 1.262433 -3.874621
v 0.467436 -1.529255 -0.948237
v 0.403590 0.914556 3.380853
v 0.643860 -0.388280 3.380853
v 0.316630 0.911793 -2.134734
v -0.247748 0.146114 -0.947857
v -0.236864 0.239942 -1.804572
v -0.196946 0.126412 -2.594904
v -0.467436 -1.529255 -0.948237
v -0.564462 -1.668027 1.656100
v -1.710443 0.724858 1.257156
v -1.212073 1.171240 1.257156
v -0.350085 0.909497 -0.948506
v -1.326946 0.143411 1.656100
v -1.229920 0.143411 -0.948237
v -0.458189 0.907303 1.655384
v -0.696520 -0.380955 1.656823
v -1.326946 -0.951718 1.656100
v -1.229920 -0.871590 -0.948237
v -0.590721 -0.716069 -4.077332
v -0.380798 1.262433 -3.874621
v -0.403590 0.914556 3.376496
v -0.643859 -0.388280 3.375043
v -0.316629 0.911793 -2.134734
v -0.000000 -0.776722 3.380853
vt 0.684179 0.642472
vt 0.987346 0.821907
vt 0.684179 0.769538
vt 0.576565 0.547442
vt 0.987346 0.547442
vt 0.570052 0.831026
vt 0.166305 0.240006
vt 0.186057 0.125266
vt 0.238892 0.171867
vt 0.238728 0.074357
vt 0.127709 0.090125
vt 0.174813 0.010684
vt 0.007159 0.683791
vt 0.007598 0.573633
vt 0.107342 0.684484
vt 0.096573 0.767292
vt 0.493800 0.125242
vt 0.370137 0.030341
vt 0.474464 0.012099
vt 0.423500 0.151998
vt 0.428155 0.408387
vt 0.236349 0.290392
vt 0.576565 0.389523
vt 0.987346 0.389523
vt 0.576565 0.241073
vt 0.987346 0.241073
vt 0.558703 0.840173
vt 0.268202 0.840173
vt 0.558703 0.622497
vt 0.268202 0.626237
vt 0.558703 0.504008
vt 0.184479 0.408387
vt 0.132589 0.316196
vt 0.085658 0.502566
vt 0.023644 0.408387
vt 0.016934 0.312126
vt 0.021844 0.249963
vt 0.136794 0.259844
vt 0.347635 0.071072
vt 0.987346 0.096107
vt 0.576565 0.096107
vt 0.684179 0.642472
vt 0.684179 0.769538
vt 0.987346 0.821907
vt 0.576565 0.547442
vt 0.987346 0.547442
vt 0.570052 0.831026
vt 0.089618 0.240135
vt 0.016802 0.172240
vt 0.069481 0.125462
vt 0.016638 0.074730
vt 0.080339 0.010843
vt 0.258069 0.684792
vt 0.157884 0.684685
vt 0.258509 0.574633
vt 0.167992 0.767577
vt 0.530262 0.016404
vt 0.630557 0.050434
vt 0.423462 0.151435
vt 0.235439 0.290563
vt 0.428155 0.408387
vt 0.576565 0.389523
vt 0.987346 0.389523
vt 0.576565 0.241073
vt 0.987346 0.241073
vt 0.558703 0.840173
vt 0.558703 0.626109
vt 0.268201 0.840173
vt 0.268201 0.622497
vt 0.558703 0.507614
vt 0.131643 0.315711
vt 0.184479 0.408387
vt 0.181018 0.502946
vt 0.023644 0.408387
vt 0.016934 0.312126
vt 0.200930 0.258777
vt 0.317266 0.057172
vt 0.565546 0.162026
vt 0.522333 0.414819
vt 0.428155 0.486992
vt 0.183802 0.486992
vt 0.024628 0.486992
vt 0.993834 0.958873
vt 0.558703 0.958873
vt 0.994407 0.840173
vt 0.268202 0.958873
vt 0.268202 0.507614
vt 0.063840 0.804529
vt 0.002331 0.900470
vt 0.268201 0.504008
vt 0.063949 0.996345
vn 0.6274 0.7063 -0.3278
vn 0.6230 0.7117 -0.3247
vn 0.6299 0.7033 -0.3296
vn 0.8246 -0.5649 -0.0307
vn -0.3237 0.9461 0.0142
vn 0.0002 0.0012 1.0000
vn 0.0003 -0.0004 1.0000
vn 0.0006 0.0007 1.0000
vn 0.3303 0.3734 0.8669
vn 0.3306 0.3734 0.8668
vn 0.3343 0.3733 0.8654
vn 0.0004 -0.0004 1.0000
vn 0.0000 -0.0005 1.0000
vn 0.3277 0.3735 0.8678
vn -0.0000 -0.0000 1.0000
vn -0.0004 -0.0002 -1.0000
vn -0.0002 0.0001 -1.0000
vn -0.0002 -0.0001 -1.0000
vn -0.0004 -0.0008 -1.0000
vn 0.9649 -0.2622 -0.0111
vn 0.9738 0.0816 0.2123
vn 0.9900 -0.0017 0.1407
vn 0.9954 -0.0663 0.0697
vn 0.9993 0.0000 -0.0372
vn 0.9155 -0.3997 -0.0464
vn 0.9114 -0.4080 -0.0535
vn 0.3663 -0.9288 -0.0563
vn 0.3443 -0.9368 -0.0627
vn 0.9829 0.1819 0.0303
vn 0.9829 0.1815 0.0306
vn 0.9829 0.1816 0.0305
vn 0.9830 0.1813 0.0308
vn 0.4940 -0.8694 0.0114
vn 0.5104 -0.8599 0.0031
vn -0.0000 -1.0000 0.0097
vn 0.6214 0.7136 -0.3235
vn 0.9900 -0.1402 -0.0165
vn 0.9908 -0.1323 -0.0290
vn -0.0001 0.0002 -1.0000
vn 0.9908 -0.1323 -0.0276
vn 0.9908 -0.1328 -0.0271
vn 0.0000 -0.9941 -0.1089
vn 0.0000 -0.7661 -0.6428
vn -0.3443 -0.9368 -0.0627
vn -0.3663 -0.9288 -0.0563
vn -0.6274 0.7063 -0.3278
vn -0.6299 0.7033 -0.3296
vn -0.6230 0.7117 -0.3247
vn -0.8246 -0.5649 -0.0307
vn 0.3237 0.9461 0.0142
vn -0.0002 0.0012 1.0000
vn -0.0006 0.0007 1.0000
vn -0.0003 -0.0004 1.0000
vn -0.3303 0.3734 0.8669
vn -0.3343 0.3733 0.8654
vn -0.3306 0.3734 0.8668
vn -0.0004 -0.0004 1.0000
vn -0.3277 0.3735 0.8678
vn 0.0004 -0.0002 -1.0000
vn 0.0002 -0.0001 -1.0000
vn 0.0002 0.0001 -1.0000
vn 0.0004 -0.0008 -1.0000
vn -0.9649 -0.2622 -0.0111
vn -0.9738 0.0816 0.2123
vn -0.9954 -0.0663 0.0697
vn -0.9900 -0.0017 0.1407
vn -0.9993 0.0000 -0.0372
vn -0.9155 -0.3997 -0.0464
vn -0.9114 -0.4080 -0.0535
vn -0.9829 0.1819 0.0304
vn -0.9829 0.1816 0.0306
vn -0.9829 0.1815 0.0307
vn -0.9830 0.1812 0.0309
vn -0.4940 -0.8694 0.0114
vn -0.5104 -0.8599 0.0031
vn -0.6214 0.7136 -0.3235
vn -0.9908 -0.1323 -0.0290
vn -0.9900 -0.1402 -0.0165
vn 0.0001 0.0002 -1.0000
vn -0.9908 -0.1323 -0.0276
vn -0.9908 -0.1328 -0.0271
vn 0.0000 0.1347 0.9909
vn 0.0000 -0.8694 0.4941
vn 0.0000 0.1019 -0.9948
vn 0.0000 0.9803 0.1976
vn 0.0000 0.9949 0.1005
vn 0.0000 1.0000 0.0014
vn 0.0000 1.0000 -0.0017
vn 0.0000 1.0000 -0.0042
vn 0.0015 -1.0000 -0.0000
vn -0.0041 0.0010 1.0000
vn -0.0046 0.0005 1.0000
vn -0.0087 0.0005 1.0000
vn -0.0062 0.0011 1.0000
usemtl Material.009
s 1
f 1/1/1 2/2/2 3/3/3
f 4/4/4 5/5/4 1/1/4
f 6/6/5 3/3/5 2/2/5
f 6/7/6 7/8/7 4/9/8
f 3/3/9 4/4/10 1/1/11
f 8/10/12 4/9/8 7/8/7
f 8/10/12 7/8/7 9/11/13
f 6/6/14 4/4/10 3/3/9
f 10/12/15 8/10/12 9/11/13
f 5/13/16 11/14/17 12/15/18
f 5/13/16 12/15/18 2/16/19
f 13/17/20 14/18/20 15/19/20
f 16/20/21 17/21/22 14/22/23
f 4/4/24 8/23/25 5/5/24
f 5/5/24 8/23/25 11/24/26
f 8/23/25 10/25/27 11/24/26
f 11/24/26 10/25/27 18/26/28
f 6/27/29 19/28/30 7/29/31
f 20/30/32 7/29/31 19/28/30
f 7/29/33 20/30/34 9/31/35
f 1/1/1 5/5/36 2/2/2
f 14/22/23 21/32/37 15/33/38
f 18/34/39 12/15/18 11/14/17
f 15/33/38 21/32/37 2/35/40
f 2/35/40 12/36/41 15/33/38
f 17/21/22 21/32/37 14/22/23
f 22/37/42 23/38/42 12/36/42
f 14/18/43 13/17/43 24/39/43
f 25/40/44 10/25/27 26/41/45
f 27/42/46 28/43/47 29/44/48
f 30/45/49 27/42/49 31/46/49
f 32/47/50 29/44/50 28/43/50
f 32/48/51 30/49/52 33/50/53
f 28/43/54 27/42/55 30/45/56
f 34/51/57 33/50/53 30/49/52
f 34/51/57 9/11/13 33/50/53
f 32/47/58 28/43/54 30/45/56
f 26/52/15 9/11/13 34/51/57
f 31/53/59 22/54/60 35/55/61
f 31/53/59 29/56/62 22/54/60
f 13/17/63 23/57/63 24/58/63
f 36/59/64 24/60/65 37/61/66
f 30/45/67 31/46/67 34/62/68
f 31/46/67 35/63/69 34/62/68
f 34/62/68 35/63/69 26/64/45
f 35/63/69 25/65/44 26/64/45
f 32/66/70 33/67/71 38/68/72
f 39/69/73 38/68/72 33/67/71
f 33/67/74 9/70/35 39/69/75
f 27/42/46 29/44/48 31/46/76
f 24/60/65 23/71/77 40/72/78
f 25/73/79 35/55/61 22/54/60
f 23/71/77 29/74/80 40/72/78
f 29/74/80 23/71/77 22/75/81
f 37/61/66 24/60/65 40/72/78
f 15/33/42 12/36/42 23/38/42
f 13/17/82 15/19/82 23/57/82
f 10/12/15 9/11/13 26/52/15
f 10/25/27 25/40/44 18/26/28
f 25/73/79 22/54/60 12/15/18
f 12/15/18 18/34/39 25/73/79
f 14/22/83 24/76/83 16/20/83
f 36/77/83 16/20/83 24/76/83
f 36/78/84 37/79/84 16/20/84
f 16/20/84 37/79/84 17/21/84
f 37/80/85 40/81/86 17/21/85
f 17/21/85 40/81/86 21/32/86
f 40/81/86 29/82/87 21/32/86
f 21/32/86 29/82/87 2/35/87
f 29/83/87 32/84/88 2/85/87
f 2/85/87 32/84/88 6/27/88
f 32/84/88 38/86/89 6/27/88
f 6/27/88 38/86/89 19/28/89
f 9/31/35 20/30/34 41/87/90
f 20/88/15 19/28/91 41/89/92
f 9/70/35 41/90/90 39/69/75
f 39/91/93 41/89/92 38/86/94
f 38/86/94 41/89/92 19/28/91
